<svg width="800" height="800" xmlns="http://www.w3.org/2000/svg">
<rect width="100%" height="100%" fill="white" />
<line x1="110" y1="690" x2="152" y2="516" stroke="#ccc" stroke-width="2" stroke-dasharray="5,5"/>
<line x1="254" y1="390" x2="422" y2="432" stroke="#ccc" stroke-width="2" stroke-dasharray="5,5"/>
<line x1="254" y1="390" x2="416" y2="270" stroke="#ccc" stroke-width="2" stroke-dasharray="5,5"/>
<line x1="152" y1="516" x2="224" y2="504" stroke="#ccc" stroke-width="2" stroke-dasharray="5,5"/>
<line x1="422" y1="432" x2="416" y2="270" stroke="#ccc" stroke-width="2" stroke-dasharray="5,5"/>
<line x1="113" y1="687" x2="155" y2="513" stroke="red" stroke-width="2"/>
<line x1="233" y1="681" x2="173" y2="219" stroke="red" stroke-width="2"/>
<line x1="257" y1="387" x2="425" y2="429" stroke="red" stroke-width="2"/>
<line x1="155" y1="513" x2="233" y2="681" stroke="red" stroke-width="2"/>
<line x1="173" y1="219" x2="257" y2="387" stroke="red" stroke-width="2"/>
<circle cx="425" cy="429" r="4" fill="red"/><line x1="107" y1="693" x2="149" y2="519" stroke="green" stroke-width="2"/>
<line x1="149" y1="519" x2="587" y2="213" stroke="green" stroke-width="2"/>
<circle cx="587" cy="213" r="4" fill="green"/><line x1="116" y1="684" x2="422" y2="264" stroke="blue" stroke-width="2"/>
<circle cx="422" cy="264" r="4" fill="blue"/><line x1="104" y1="696" x2="446" y2="672" stroke="orange" stroke-width="2"/>
<line x1="584" y1="216" x2="248" y2="396" stroke="orange" stroke-width="2"/>
<line x1="446" y1="672" x2="584" y2="216" stroke="orange" stroke-width="2"/>
<circle cx="248" cy="396" r="4" fill="orange"/><line x1="119" y1="681" x2="131" y2="537" stroke="purple" stroke-width="2"/>
<line x1="527" y1="591" x2="425" y2="261" stroke="purple" stroke-width="2"/>
<line x1="131" y1="537" x2="527" y2="591" stroke="purple" stroke-width="2"/>
<line x1="425" y1="261" x2="233" y2="495" stroke="purple" stroke-width="2"/>
<circle cx="233" cy="495" r="4" fill="purple"/><line x1="101" y1="699" x2="371" y2="405" stroke="brown" stroke-width="2"/>
<line x1="371" y1="405" x2="215" y2="651" stroke="brown" stroke-width="2"/>
<line x1="539" y1="561" x2="143" y2="525" stroke="brown" stroke-width="2"/>
<line x1="215" y1="651" x2="539" y2="561" stroke="brown" stroke-width="2"/>
<circle cx="143" cy="525" r="4" fill="brown"/><rect x="100" y="680" width="20" height="20" fill="red"/><text x="120" y="690" font-size="10">0</text>
<circle cx="590" cy="210" r="10" fill="gold" stroke="black"/><text x="600" y="210" font-size="10">1</text>
<circle cx="230" cy="684" r="5" fill="black" stroke="black"/><text x="240" y="684" font-size="10">2</text>
<circle cx="248" cy="432" r="5" fill="black" stroke="black"/><text x="258" y="432" font-size="10">3</text>
<circle cx="254" cy="390" r="5" fill="black" stroke="black"/><text x="264" y="390" font-size="10">4</text>
<circle cx="518" cy="600" r="5" fill="black" stroke="black"/><text x="528" y="600" font-size="10">5</text>
<circle cx="152" cy="516" r="5" fill="black" stroke="black"/><text x="162" y="516" font-size="10">6</text>
<circle cx="122" cy="546" r="5" fill="black" stroke="black"/><text x="132" y="546" font-size="10">7</text>
<circle cx="380" cy="396" r="5" fill="black" stroke="black"/><text x="390" y="396" font-size="10">8</text>
<circle cx="422" cy="432" r="5" fill="black" stroke="black"/><text x="432" y="432" font-size="10">9</text>
<circle cx="284" cy="276" r="5" fill="black" stroke="black"/><text x="294" y="276" font-size="10">10</text>
<circle cx="548" cy="552" r="5" fill="black" stroke="black"/><text x="558" y="552" font-size="10">11</text>
<circle cx="242" cy="660" r="5" fill="black" stroke="black"/><text x="252" y="660" font-size="10">12</text>
<circle cx="224" cy="642" r="5" fill="black" stroke="black"/><text x="234" y="642" font-size="10">13</text>
<circle cx="350" cy="396" r="5" fill="black" stroke="black"/><text x="360" y="396" font-size="10">14</text>
<circle cx="542" cy="258" r="5" fill="black" stroke="black"/><text x="552" y="258" font-size="10">15</text>
<circle cx="452" cy="666" r="5" fill="black" stroke="black"/><text x="462" y="666" font-size="10">16</text>
<circle cx="416" cy="270" r="5" fill="black" stroke="black"/><text x="426" y="270" font-size="10">17</text>
<circle cx="170" cy="222" r="5" fill="black" stroke="black"/><text x="180" y="222" font-size="10">18</text>
<circle cx="224" cy="504" r="5" fill="black" stroke="black"/><text x="234" y="504" font-size="10">19</text>
</svg>