<svg width="800" height="800" xmlns="http://www.w3.org/2000/svg">
<rect width="100%" height="100%" fill="#fdfdfd" />
<line x1="110" y1="690" x2="152" y2="516" stroke="#b3b3b3" stroke-width="3" stroke-dasharray="6,6"/>
<line x1="110" y1="690" x2="122" y2="546" stroke="#b3b3b3" stroke-width="3" stroke-dasharray="6,6"/>
<line x1="110" y1="690" x2="242" y2="660" stroke="#b3b3b3" stroke-width="3" stroke-dasharray="6,6"/>
<line x1="110" y1="690" x2="224" y2="642" stroke="#b3b3b3" stroke-width="3" stroke-dasharray="6,6"/>
<line x1="590" y1="210" x2="542" y2="258" stroke="#b3b3b3" stroke-width="3" stroke-dasharray="6,6"/>
<line x1="590" y1="210" x2="416" y2="270" stroke="#b3b3b3" stroke-width="3" stroke-dasharray="6,6"/>
<line x1="350" y1="390" x2="248" y2="432" stroke="#b3b3b3" stroke-width="3" stroke-dasharray="6,6"/>
<line x1="350" y1="390" x2="254" y2="390" stroke="#b3b3b3" stroke-width="3" stroke-dasharray="6,6"/>
<line x1="350" y1="390" x2="380" y2="396" stroke="#b3b3b3" stroke-width="3" stroke-dasharray="6,6"/>
<line x1="350" y1="390" x2="422" y2="432" stroke="#b3b3b3" stroke-width="3" stroke-dasharray="6,6"/>
<line x1="350" y1="390" x2="284" y2="276" stroke="#b3b3b3" stroke-width="3" stroke-dasharray="6,6"/>
<line x1="350" y1="390" x2="350" y2="396" stroke="#b3b3b3" stroke-width="3" stroke-dasharray="6,6"/>
<line x1="350" y1="390" x2="416" y2="270" stroke="#b3b3b3" stroke-width="3" stroke-dasharray="6,6"/>
<line x1="248" y1="432" x2="254" y2="390" stroke="#b3b3b3" stroke-width="3" stroke-dasharray="6,6"/>
<line x1="248" y1="432" x2="152" y2="516" stroke="#b3b3b3" stroke-width="3" stroke-dasharray="6,6"/>
<line x1="248" y1="432" x2="122" y2="546" stroke="#b3b3b3" stroke-width="3" stroke-dasharray="6,6"/>
<line x1="248" y1="432" x2="380" y2="396" stroke="#b3b3b3" stroke-width="3" stroke-dasharray="6,6"/>
<line x1="248" y1="432" x2="422" y2="432" stroke="#b3b3b3" stroke-width="3" stroke-dasharray="6,6"/>
<line x1="248" y1="432" x2="284" y2="276" stroke="#b3b3b3" stroke-width="3" stroke-dasharray="6,6"/>
<line x1="248" y1="432" x2="350" y2="396" stroke="#b3b3b3" stroke-width="3" stroke-dasharray="6,6"/>
<line x1="254" y1="390" x2="152" y2="516" stroke="#b3b3b3" stroke-width="3" stroke-dasharray="6,6"/>
<line x1="254" y1="390" x2="122" y2="546" stroke="#b3b3b3" stroke-width="3" stroke-dasharray="6,6"/>
<line x1="254" y1="390" x2="380" y2="396" stroke="#b3b3b3" stroke-width="3" stroke-dasharray="6,6"/>
<line x1="254" y1="390" x2="422" y2="432" stroke="#b3b3b3" stroke-width="3" stroke-dasharray="6,6"/>
<line x1="254" y1="390" x2="284" y2="276" stroke="#b3b3b3" stroke-width="3" stroke-dasharray="6,6"/>
<line x1="254" y1="390" x2="350" y2="396" stroke="#b3b3b3" stroke-width="3" stroke-dasharray="6,6"/>
<line x1="254" y1="390" x2="416" y2="270" stroke="#b3b3b3" stroke-width="3" stroke-dasharray="6,6"/>
<line x1="518" y1="600" x2="422" y2="432" stroke="#b3b3b3" stroke-width="3" stroke-dasharray="6,6"/>
<line x1="518" y1="600" x2="548" y2="552" stroke="#b3b3b3" stroke-width="3" stroke-dasharray="6,6"/>
<line x1="152" y1="516" x2="122" y2="546" stroke="#b3b3b3" stroke-width="3" stroke-dasharray="6,6"/>
<line x1="152" y1="516" x2="242" y2="660" stroke="#b3b3b3" stroke-width="3" stroke-dasharray="6,6"/>
<line x1="152" y1="516" x2="224" y2="642" stroke="#b3b3b3" stroke-width="3" stroke-dasharray="6,6"/>
<line x1="122" y1="546" x2="242" y2="660" stroke="#b3b3b3" stroke-width="3" stroke-dasharray="6,6"/>
<line x1="122" y1="546" x2="224" y2="642" stroke="#b3b3b3" stroke-width="3" stroke-dasharray="6,6"/>
<line x1="380" y1="396" x2="422" y2="432" stroke="#b3b3b3" stroke-width="3" stroke-dasharray="6,6"/>
<line x1="380" y1="396" x2="284" y2="276" stroke="#b3b3b3" stroke-width="3" stroke-dasharray="6,6"/>
<line x1="380" y1="396" x2="350" y2="396" stroke="#b3b3b3" stroke-width="3" stroke-dasharray="6,6"/>
<line x1="380" y1="396" x2="416" y2="270" stroke="#b3b3b3" stroke-width="3" stroke-dasharray="6,6"/>
<line x1="422" y1="432" x2="284" y2="276" stroke="#b3b3b3" stroke-width="3" stroke-dasharray="6,6"/>
<line x1="422" y1="432" x2="548" y2="552" stroke="#b3b3b3" stroke-width="3" stroke-dasharray="6,6"/>
<line x1="422" y1="432" x2="350" y2="396" stroke="#b3b3b3" stroke-width="3" stroke-dasharray="6,6"/>
<line x1="422" y1="432" x2="416" y2="270" stroke="#b3b3b3" stroke-width="3" stroke-dasharray="6,6"/>
<line x1="284" y1="276" x2="350" y2="396" stroke="#b3b3b3" stroke-width="3" stroke-dasharray="6,6"/>
<line x1="284" y1="276" x2="416" y2="270" stroke="#b3b3b3" stroke-width="3" stroke-dasharray="6,6"/>
<line x1="242" y1="660" x2="224" y2="642" stroke="#b3b3b3" stroke-width="3" stroke-dasharray="6,6"/>
<line x1="350" y1="396" x2="416" y2="270" stroke="#b3b3b3" stroke-width="3" stroke-dasharray="6,6"/>
<line x1="542" y1="258" x2="416" y2="270" stroke="#b3b3b3" stroke-width="3" stroke-dasharray="6,6"/>
<line x1="113" y1="687" x2="245" y2="657" stroke="red" stroke-width="2"/>
<circle cx="218.6" cy="663" r="3" fill="red"/>
<line x1="593" y1="207" x2="545" y2="255" stroke="red" stroke-width="2"/>
<circle cx="554.6" cy="245.4" r="3" fill="red"/>
<line x1="353" y1="387" x2="425" y2="429" stroke="red" stroke-width="2"/>
<circle cx="410.6" cy="420.6" r="3" fill="red"/>
<line x1="251" y1="429" x2="125" y2="543" stroke="red" stroke-width="2"/>
<circle cx="150.2" cy="520.2" r="3" fill="red"/>
<line x1="257" y1="387" x2="113" y2="687" stroke="red" stroke-width="2"/>
<circle cx="141.8" cy="627" r="3" fill="red"/>
<line x1="155" y1="513" x2="353" y2="387" stroke="red" stroke-width="2"/>
<circle cx="313.4" cy="412.2" r="3" fill="red"/>
<line x1="125" y1="543" x2="155" y2="513" stroke="red" stroke-width="2"/>
<circle cx="149" cy="519" r="3" fill="red"/>
<line x1="383" y1="393" x2="257" y2="387" stroke="red" stroke-width="2"/>
<circle cx="282.2" cy="388.2" r="3" fill="red"/>
<line x1="425" y1="429" x2="593" y2="207" stroke="red" stroke-width="2"/>
<circle cx="559.4" cy="251.4" r="3" fill="red"/>
<line x1="245" y1="657" x2="251" y2="429" stroke="red" stroke-width="2"/>
<circle cx="249.8" cy="474.6" r="3" fill="red"/>
<line x1="545" y1="255" x2="419" y2="267" stroke="red" stroke-width="2"/>
<circle cx="444.2" cy="264.6" r="3" fill="red"/>
<line x1="419" y1="267" x2="383" y2="393" stroke="red" stroke-width="2"/>
<circle cx="390.2" cy="367.8" r="3" fill="red"/>
<line x1="107" y1="693" x2="515" y2="603" stroke="green" stroke-width="2"/>
<circle cx="433.4" cy="621" r="3" fill="green"/>
<line x1="587" y1="213" x2="251" y2="393" stroke="green" stroke-width="2"/>
<circle cx="318.2" cy="357" r="3" fill="green"/>
<line x1="347" y1="393" x2="539" y2="261" stroke="green" stroke-width="2"/>
<circle cx="500.6" cy="287.4" r="3" fill="green"/>
<line x1="245" y1="435" x2="413" y2="273" stroke="green" stroke-width="2"/>
<circle cx="379.4" cy="305.4" r="3" fill="green"/>
<line x1="251" y1="393" x2="245" y2="435" stroke="green" stroke-width="2"/>
<circle cx="246.2" cy="426.6" r="3" fill="green"/>
<line x1="515" y1="603" x2="377" y2="399" stroke="green" stroke-width="2"/>
<circle cx="404.6" cy="439.8" r="3" fill="green"/>
<line x1="377" y1="399" x2="419" y2="435" stroke="green" stroke-width="2"/>
<circle cx="410.6" cy="427.8" r="3" fill="green"/>
<line x1="419" y1="435" x2="347" y2="399" stroke="green" stroke-width="2"/>
<circle cx="361.4" cy="406.2" r="3" fill="green"/>
<line x1="347" y1="399" x2="347" y2="393" stroke="green" stroke-width="2"/>
<circle cx="347" cy="394.2" r="3" fill="green"/>
<line x1="539" y1="261" x2="587" y2="213" stroke="green" stroke-width="2"/>
<circle cx="577.4" cy="222.6" r="3" fill="green"/>
<line x1="413" y1="273" x2="107" y2="693" stroke="green" stroke-width="2"/>
<circle cx="168.2" cy="609" r="3" fill="green"/>
<line x1="116" y1="684" x2="260" y2="384" stroke="blue" stroke-width="2"/>
<circle cx="231.2" cy="444" r="3" fill="blue"/>
<line x1="596" y1="204" x2="290" y2="270" stroke="blue" stroke-width="2"/>
<circle cx="351.2" cy="256.8" r="3" fill="blue"/>
<line x1="260" y1="384" x2="230" y2="636" stroke="blue" stroke-width="2"/>
<circle cx="236" cy="585.6" r="3" fill="blue"/>
<line x1="524" y1="594" x2="116" y2="684" stroke="blue" stroke-width="2"/>
<circle cx="197.6" cy="666" r="3" fill="blue"/>
<line x1="386" y1="390" x2="548" y2="252" stroke="blue" stroke-width="2"/>
<circle cx="515.6" cy="279.6" r="3" fill="blue"/>
<line x1="428" y1="426" x2="386" y2="390" stroke="blue" stroke-width="2"/>
<circle cx="394.4" cy="397.2" r="3" fill="blue"/>
<line x1="290" y1="270" x2="554" y2="546" stroke="blue" stroke-width="2"/>
<circle cx="501.2" cy="490.8" r="3" fill="blue"/>
<line x1="554" y1="546" x2="524" y2="594" stroke="blue" stroke-width="2"/>
<circle cx="530" cy="584.4" r="3" fill="blue"/>
<line x1="248" y1="654" x2="428" y2="426" stroke="blue" stroke-width="2"/>
<circle cx="392" cy="471.6" r="3" fill="blue"/>
<line x1="230" y1="636" x2="248" y2="654" stroke="blue" stroke-width="2"/>
<circle cx="244.4" cy="650.4" r="3" fill="blue"/>
<line x1="548" y1="252" x2="596" y2="204" stroke="blue" stroke-width="2"/>
<circle cx="586.4" cy="213.6" r="3" fill="blue"/>
<rect x="100" y="680" width="20" height="20" fill="red"/><text x="120" y="690" font-size="11" font-weight="bold">Node 0</text>
<circle cx="590" cy="210" r="10" fill="gold" stroke="black"/><text x="600" y="210" font-size="11" font-weight="bold">Node 1</text>
<circle cx="350" cy="390" r="5" fill="black" stroke="black"/><text x="360" y="390" font-size="11" font-weight="bold">Node 2</text>
<circle cx="230" cy="684" r="5" fill="black" stroke="black"/><text x="240" y="684" font-size="11" font-weight="bold">Node 3</text>
<circle cx="248" cy="432" r="5" fill="black" stroke="black"/><text x="258" y="432" font-size="11" font-weight="bold">Node 4</text>
<circle cx="254" cy="390" r="5" fill="black" stroke="black"/><text x="264" y="390" font-size="11" font-weight="bold">Node 5</text>
<circle cx="518" cy="600" r="5" fill="black" stroke="black"/><text x="528" y="600" font-size="11" font-weight="bold">Node 6</text>
<circle cx="152" cy="516" r="5" fill="black" stroke="black"/><text x="162" y="516" font-size="11" font-weight="bold">Node 7</text>
<circle cx="122" cy="546" r="5" fill="black" stroke="black"/><text x="132" y="546" font-size="11" font-weight="bold">Node 8</text>
<circle cx="380" cy="396" r="5" fill="black" stroke="black"/><text x="390" y="396" font-size="11" font-weight="bold">Node 9</text>
<circle cx="422" cy="432" r="5" fill="black" stroke="black"/><text x="432" y="432" font-size="11" font-weight="bold">Node 10</text>
<circle cx="284" cy="276" r="5" fill="black" stroke="black"/><text x="294" y="276" font-size="11" font-weight="bold">Node 11</text>
<circle cx="548" cy="552" r="5" fill="black" stroke="black"/><text x="558" y="552" font-size="11" font-weight="bold">Node 12</text>
<circle cx="242" cy="660" r="5" fill="black" stroke="black"/><text x="252" y="660" font-size="11" font-weight="bold">Node 13</text>
<circle cx="224" cy="642" r="5" fill="black" stroke="black"/><text x="234" y="642" font-size="11" font-weight="bold">Node 14</text>
<circle cx="350" cy="396" r="5" fill="black" stroke="black"/><text x="360" y="396" font-size="11" font-weight="bold">Node 15</text>
<circle cx="542" cy="258" r="5" fill="black" stroke="black"/><text x="552" y="258" font-size="11" font-weight="bold">Node 16</text>
<circle cx="452" cy="666" r="5" fill="black" stroke="black"/><text x="462" y="666" font-size="11" font-weight="bold">Node 17</text>
<circle cx="416" cy="270" r="5" fill="black" stroke="black"/><text x="426" y="270" font-size="11" font-weight="bold">Node 18</text>
<circle cx="170" cy="222" r="5" fill="black" stroke="black"/><text x="180" y="222" font-size="11" font-weight="bold">Node 19</text>
</svg>
