<svg width="800" height="800" xmlns="http://www.w3.org/2000/svg">
<rect width="100%" height="100%" fill="#fdfdfd" />
<line x1="110" y1="690" x2="170" y2="678" stroke="#b3b3b3" stroke-width="3" stroke-dasharray="6,6"/>
<line x1="224" y1="504" x2="350" y2="378" stroke="#b3b3b3" stroke-width="3" stroke-dasharray="6,6"/>
<line x1="113" y1="687" x2="257" y2="387" stroke="red" stroke-width="2"/>
<text x="185" y="533" font-family="Arial" font-size="10" font-weight="bold" fill="red" text-anchor="middle">55.5</text>
<line x1="257.0" y1="387.0" x2="227.0" y2="501.0" stroke="red" stroke-width="2"/>
<text x="242.0" y="440.0" font-family="Arial" font-size="10" font-weight="bold" fill="red" text-anchor="middle">19.6</text>
<circle cx="227.0" cy="501.0" r="5" fill="red"/>
<line x1="107.0" y1="693.0" x2="449.0" y2="669.0" stroke="green" stroke-width="2"/>
<text x="278.0" y="677.0" font-family="Arial" font-size="10" font-weight="bold" fill="green" text-anchor="middle">57.1</text>
<line x1="227.0" y1="687.0" x2="167.0" y2="681.0" stroke="green" stroke-width="2"/>
<text x="197.0" y="680.0" font-family="Arial" font-size="10" font-weight="bold" fill="green" text-anchor="middle">10.0</text>
<line x1="449.0" y1="669.0" x2="227.0" y2="687.0" stroke="green" stroke-width="2"/>
<text x="338.0" y="674.0" font-family="Arial" font-size="10" font-weight="bold" fill="green" text-anchor="middle">37.1</text>
<circle cx="167.0" cy="681.0" r="5" fill="green"/>
<line x1="116.0" y1="684.0" x2="596.0" y2="204.0" stroke="blue" stroke-width="2"/>
<text x="356.0" y="440.0" font-family="Arial" font-size="10" font-weight="bold" fill="blue" text-anchor="middle">113.1</text>
<line x1="596.0" y1="204.0" x2="470.0" y2="678.0" stroke="blue" stroke-width="2"/>
<text x="533.0" y="437.0" font-family="Arial" font-size="10" font-weight="bold" fill="blue" text-anchor="middle">81.7</text>
<line x1="470.0" y1="678.0" x2="356.0" y2="372.0" stroke="blue" stroke-width="2"/>
<text x="413.0" y="521.0" font-family="Arial" font-size="10" font-weight="bold" fill="blue" text-anchor="middle">54.4</text>
<circle cx="356.0" cy="372.0" r="5" fill="blue"/>
<rect x="100.0" y="680.0" width="20" height="20" fill="red"/><text x="120.0" y="690.0" font-size="11" font-weight="bold">0</text>
<circle cx="590.0" cy="210.0" r="10.0" fill="gold" stroke="black"/><text x="600.0" y="210.0" font-size="11" font-weight="bold">1</text>
<circle cx="230.0" cy="684.0" r="5.0" fill="black" stroke="black"/><text x="240.0" y="684.0" font-size="11" font-weight="bold">2</text>
<circle cx="248.0" cy="432.0" r="5.0" fill="black" stroke="black"/><text x="258.0" y="432.0" font-size="11" font-weight="bold">3</text>
<circle cx="254.0" cy="390.0" r="5.0" fill="black" stroke="black"/><text x="264.0" y="390.0" font-size="11" font-weight="bold">4</text>
<circle cx="518.0" cy="600.0" r="5.0" fill="black" stroke="black"/><text x="528.0" y="600.0" font-size="11" font-weight="bold">5</text>
<circle cx="152.0" cy="516.0" r="5.0" fill="black" stroke="black"/><text x="162.0" y="516.0" font-size="11" font-weight="bold">6</text>
<circle cx="122.0" cy="546.0" r="5.0" fill="black" stroke="black"/><text x="132.0" y="546.0" font-size="11" font-weight="bold">7</text>
<circle cx="380.0" cy="396.0" r="5.0" fill="black" stroke="black"/><text x="390.0" y="396.0" font-size="11" font-weight="bold">8</text>
<circle cx="422.0" cy="432.0" r="5.0" fill="black" stroke="black"/><text x="432.0" y="432.0" font-size="11" font-weight="bold">9</text>
<circle cx="284.0" cy="276.0" r="5.0" fill="black" stroke="black"/><text x="294.0" y="276.0" font-size="11" font-weight="bold">10</text>
<circle cx="548.0" cy="552.0" r="5.0" fill="black" stroke="black"/><text x="558.0" y="552.0" font-size="11" font-weight="bold">11</text>
<circle cx="242.0" cy="660.0" r="5.0" fill="black" stroke="black"/><text x="252.0" y="660.0" font-size="11" font-weight="bold">12</text>
<circle cx="224.0" cy="642.0" r="5.0" fill="black" stroke="black"/><text x="234.0" y="642.0" font-size="11" font-weight="bold">13</text>
<circle cx="350.0" cy="396.0" r="5.0" fill="black" stroke="black"/><text x="360.0" y="396.0" font-size="11" font-weight="bold">14</text>
<circle cx="542.0" cy="258.0" r="5.0" fill="black" stroke="black"/><text x="552.0" y="258.0" font-size="11" font-weight="bold">15</text>
<circle cx="452.0" cy="666.0" r="5.0" fill="black" stroke="black"/><text x="462.0" y="666.0" font-size="11" font-weight="bold">16</text>
<circle cx="416.0" cy="270.0" r="5.0" fill="black" stroke="black"/><text x="426.0" y="270.0" font-size="11" font-weight="bold">17</text>
<circle cx="170.0" cy="222.0" r="5.0" fill="black" stroke="black"/><text x="180.0" y="222.0" font-size="11" font-weight="bold">18</text>
<circle cx="224.0" cy="504.0" r="5.0" fill="black" stroke="black"/><text x="234.0" y="504.0" font-size="11" font-weight="bold">19</text>
<circle cx="182.0" cy="378.0" r="5.0" fill="black" stroke="black"/><text x="192.0" y="378.0" font-size="11" font-weight="bold">20</text>
<circle cx="422.0" cy="672.0" r="5.0" fill="black" stroke="black"/><text x="432.0" y="672.0" font-size="11" font-weight="bold">21</text>
<circle cx="464.0" cy="684.0" r="5.0" fill="black" stroke="black"/><text x="474.0" y="684.0" font-size="11" font-weight="bold">22</text>
<circle cx="140.0" cy="246.0" r="5.0" fill="black" stroke="black"/><text x="150.0" y="246.0" font-size="11" font-weight="bold">23</text>
<circle cx="350.0" cy="378.0" r="5.0" fill="black" stroke="black"/><text x="360.0" y="378.0" font-size="11" font-weight="bold">24</text>
<circle cx="308.0" cy="438.0" r="5.0" fill="black" stroke="black"/><text x="318.0" y="438.0" font-size="11" font-weight="bold">25</text>
<circle cx="278.0" cy="618.0" r="5.0" fill="black" stroke="black"/><text x="288.0" y="618.0" font-size="11" font-weight="bold">26</text>
<circle cx="170.0" cy="678.0" r="5.0" fill="black" stroke="black"/><text x="180.0" y="678.0" font-size="11" font-weight="bold">27</text>
<circle cx="368.0" cy="528.0" r="5.0" fill="black" stroke="black"/><text x="378.0" y="528.0" font-size="11" font-weight="bold">28</text>
<circle cx="200.0" cy="222.0" r="5.0" fill="black" stroke="black"/><text x="210.0" y="222.0" font-size="11" font-weight="bold">29</text>
</svg>
