<svg width="1800" height="800" xmlns="http://www.w3.org/2000/svg">
<rect width="100%" height="100%" fill="white" />
<rect x="100" y="680" width="20" height="20" fill="red"/><text x="120" y="690" font-size="12" font-weight="bold" fill="black">Node 0</text>
<circle cx="590" cy="210" r="10" fill="gold" stroke="black"/><text x="600" y="210" font-size="12" font-weight="bold" fill="black">Node 1</text>
<circle cx="230" cy="684" r="5" fill="black" stroke="black"/><text x="240" y="684" font-size="12" font-weight="bold" fill="black">Node 2</text>
<circle cx="248" cy="432" r="5" fill="black" stroke="black"/><text x="258" y="432" font-size="12" font-weight="bold" fill="black">Node 3</text>
<circle cx="254" cy="390" r="5" fill="black" stroke="black"/><text x="264" y="390" font-size="12" font-weight="bold" fill="black">Node 4</text>
<circle cx="518" cy="600" r="5" fill="black" stroke="black"/><text x="528" y="600" font-size="12" font-weight="bold" fill="black">Node 5</text>
<circle cx="152" cy="516" r="5" fill="black" stroke="black"/><text x="162" y="516" font-size="12" font-weight="bold" fill="black">Node 6</text>
<circle cx="122" cy="546" r="5" fill="black" stroke="black"/><text x="132" y="546" font-size="12" font-weight="bold" fill="black">Node 7</text>
<circle cx="380" cy="396" r="5" fill="black" stroke="black"/><text x="390" y="396" font-size="12" font-weight="bold" fill="black">Node 8</text>
<circle cx="422" cy="432" r="5" fill="black" stroke="black"/><text x="432" y="432" font-size="12" font-weight="bold" fill="black">Node 9</text>
<circle cx="284" cy="276" r="5" fill="black" stroke="black"/><text x="294" y="276" font-size="12" font-weight="bold" fill="black">Node 10</text>
<circle cx="548" cy="552" r="5" fill="black" stroke="black"/><text x="558" y="552" font-size="12" font-weight="bold" fill="black">Node 11</text>
<circle cx="242" cy="660" r="5" fill="black" stroke="black"/><text x="252" y="660" font-size="12" font-weight="bold" fill="black">Node 12</text>
<circle cx="224" cy="642" r="5" fill="black" stroke="black"/><text x="234" y="642" font-size="12" font-weight="bold" fill="black">Node 13</text>
<circle cx="350" cy="396" r="5" fill="black" stroke="black"/><text x="360" y="396" font-size="12" font-weight="bold" fill="black">Node 14</text>
<circle cx="542" cy="258" r="5" fill="black" stroke="black"/><text x="552" y="258" font-size="12" font-weight="bold" fill="black">Node 15</text>
<circle cx="452" cy="666" r="5" fill="black" stroke="black"/><text x="462" y="666" font-size="12" font-weight="bold" fill="black">Node 16</text>
<circle cx="416" cy="270" r="5" fill="black" stroke="black"/><text x="426" y="270" font-size="12" font-weight="bold" fill="black">Node 17</text>
<circle cx="170" cy="222" r="5" fill="black" stroke="black"/><text x="180" y="222" font-size="12" font-weight="bold" fill="black">Node 18</text>
<circle cx="224" cy="504" r="5" fill="black" stroke="black"/><text x="234" y="504" font-size="12" font-weight="bold" fill="black">Node 19</text>
<circle cx="182" cy="378" r="5" fill="black" stroke="black"/><text x="192" y="378" font-size="12" font-weight="bold" fill="black">Node 20</text>
<circle cx="422" cy="672" r="5" fill="black" stroke="black"/><text x="432" y="672" font-size="12" font-weight="bold" fill="black">Node 21</text>
<circle cx="464" cy="684" r="5" fill="black" stroke="black"/><text x="474" y="684" font-size="12" font-weight="bold" fill="black">Node 22</text>
<circle cx="140" cy="246" r="5" fill="black" stroke="black"/><text x="150" y="246" font-size="12" font-weight="bold" fill="black">Node 23</text>
<circle cx="350" cy="378" r="5" fill="black" stroke="black"/><text x="360" y="378" font-size="12" font-weight="bold" fill="black">Node 24</text>
<circle cx="308" cy="438" r="5" fill="black" stroke="black"/><text x="318" y="438" font-size="12" font-weight="bold" fill="black">Node 25</text>
<circle cx="278" cy="618" r="5" fill="black" stroke="black"/><text x="288" y="618" font-size="12" font-weight="bold" fill="black">Node 26</text>
<circle cx="170" cy="678" r="5" fill="black" stroke="black"/><text x="180" y="678" font-size="12" font-weight="bold" fill="black">Node 27</text>
<circle cx="368" cy="528" r="5" fill="black" stroke="black"/><text x="378" y="528" font-size="12" font-weight="bold" fill="black">Node 28</text>
<circle cx="200" cy="222" r="5" fill="black" stroke="black"/><text x="210" y="222" font-size="12" font-weight="bold" fill="black">Node 29</text>
</svg>