<svg width="800" height="800" xmlns="http://www.w3.org/2000/svg">
<rect width="100%" height="100%" fill="white" />
<line x1="110" y1="690" x2="152" y2="516" stroke="#ccc" stroke-width="2" stroke-dasharray="5,5"/>
<line x1="254" y1="390" x2="416" y2="270" stroke="#ccc" stroke-width="2" stroke-dasharray="5,5"/>
<line x1="113" y1="687" x2="419" y2="267" stroke="red" stroke-width="2"/>
<line x1="251" y1="429" x2="353" y2="393" stroke="red" stroke-width="2"/>
<line x1="353" y1="393" x2="155" y2="513" stroke="red" stroke-width="2"/>
<line x1="419" y1="267" x2="251" y2="429" stroke="red" stroke-width="2"/>
<circle cx="155" cy="513" r="4" fill="red"/><line x1="107" y1="693" x2="587" y2="213" stroke="green" stroke-width="2"/>
<line x1="587" y1="213" x2="251" y2="393" stroke="green" stroke-width="2"/>
<circle cx="251" cy="393" r="4" fill="green"/><line x1="116" y1="684" x2="128" y2="540" stroke="blue" stroke-width="2"/>
<line x1="128" y1="540" x2="386" y2="390" stroke="blue" stroke-width="2"/>
<line x1="386" y1="390" x2="596" y2="204" stroke="blue" stroke-width="2"/>
<circle cx="596" cy="204" r="4" fill="blue"/><line x1="104" y1="696" x2="224" y2="690" stroke="orange" stroke-width="2"/>
<line x1="584" y1="216" x2="410" y2="276" stroke="orange" stroke-width="2"/>
<line x1="224" y1="690" x2="248" y2="396" stroke="orange" stroke-width="2"/>
<line x1="248" y1="396" x2="512" y2="606" stroke="orange" stroke-width="2"/>
<line x1="512" y1="606" x2="584" y2="216" stroke="orange" stroke-width="2"/>
<circle cx="410" cy="276" r="4" fill="orange"/><rect x="100" y="680" width="20" height="20" fill="red"/><text x="120" y="690" font-size="10">0</text>
<circle cx="590" cy="210" r="10" fill="gold" stroke="black"/><text x="600" y="210" font-size="10">1</text>
<circle cx="230" cy="684" r="5" fill="black" stroke="black"/><text x="240" y="684" font-size="10">2</text>
<circle cx="248" cy="432" r="5" fill="black" stroke="black"/><text x="258" y="432" font-size="10">3</text>
<circle cx="254" cy="390" r="5" fill="black" stroke="black"/><text x="264" y="390" font-size="10">4</text>
<circle cx="518" cy="600" r="5" fill="black" stroke="black"/><text x="528" y="600" font-size="10">5</text>
<circle cx="152" cy="516" r="5" fill="black" stroke="black"/><text x="162" y="516" font-size="10">6</text>
<circle cx="122" cy="546" r="5" fill="black" stroke="black"/><text x="132" y="546" font-size="10">7</text>
<circle cx="380" cy="396" r="5" fill="black" stroke="black"/><text x="390" y="396" font-size="10">8</text>
<circle cx="422" cy="432" r="5" fill="black" stroke="black"/><text x="432" y="432" font-size="10">9</text>
<circle cx="284" cy="276" r="5" fill="black" stroke="black"/><text x="294" y="276" font-size="10">10</text>
<circle cx="548" cy="552" r="5" fill="black" stroke="black"/><text x="558" y="552" font-size="10">11</text>
<circle cx="242" cy="660" r="5" fill="black" stroke="black"/><text x="252" y="660" font-size="10">12</text>
<circle cx="224" cy="642" r="5" fill="black" stroke="black"/><text x="234" y="642" font-size="10">13</text>
<circle cx="350" cy="396" r="5" fill="black" stroke="black"/><text x="360" y="396" font-size="10">14</text>
<circle cx="542" cy="258" r="5" fill="black" stroke="black"/><text x="552" y="258" font-size="10">15</text>
<circle cx="452" cy="666" r="5" fill="black" stroke="black"/><text x="462" y="666" font-size="10">16</text>
<circle cx="416" cy="270" r="5" fill="black" stroke="black"/><text x="426" y="270" font-size="10">17</text>
<circle cx="170" cy="222" r="5" fill="black" stroke="black"/><text x="180" y="222" font-size="10">18</text>
<circle cx="224" cy="504" r="5" fill="black" stroke="black"/><text x="234" y="504" font-size="10">19</text>
</svg>