<svg width="800" height="800" xmlns="http://www.w3.org/2000/svg">
<rect width="100%" height="100%" fill="white" />
<text x="20" y="30" font-family="Arial">MDPI Area Coverage + Connectivity. Reward: 220</text>
<circle cx="410" cy="456" r="22.5" fill="rgba(0, 0, 255, 0.2)" stroke="blue" stroke-width="1" />
<text x="410" y="456" text-anchor="middle" font-size="10">1</text>
<circle cx="398" cy="312" r="7.5" fill="rgba(0, 0, 255, 0.2)" stroke="blue" stroke-width="1" />
<text x="398" y="312" text-anchor="middle" font-size="10">2</text>
<circle cx="98" cy="300" r="7.5" fill="rgba(0, 0, 255, 0.2)" stroke="blue" stroke-width="1" />
<text x="98" y="300" text-anchor="middle" font-size="10">3</text>
<circle cx="380" cy="414" r="21" fill="rgba(0, 0, 255, 0.2)" stroke="blue" stroke-width="1" />
<text x="380" y="414" text-anchor="middle" font-size="10">4</text>
<circle cx="236" cy="156" r="16.5" fill="rgba(0, 0, 255, 0.2)" stroke="blue" stroke-width="1" />
<text x="236" y="156" text-anchor="middle" font-size="10">5</text>
<circle cx="80" cy="342" r="13.5" fill="rgba(200, 200, 200, 0.2)" stroke="gray" stroke-width="1" />
<text x="80" y="342" text-anchor="middle" font-size="10">6</text>
<circle cx="134" cy="672" r="28.5" fill="rgba(200, 200, 200, 0.2)" stroke="gray" stroke-width="1" />
<text x="134" y="672" text-anchor="middle" font-size="10">7</text>
<circle cx="134" cy="534" r="15" fill="rgba(0, 0, 255, 0.2)" stroke="blue" stroke-width="1" />
<text x="134" y="534" text-anchor="middle" font-size="10">8</text>
<circle cx="164" cy="570" r="16.5" fill="rgba(0, 0, 255, 0.2)" stroke="blue" stroke-width="1" />
<text x="164" y="570" text-anchor="middle" font-size="10">9</text>
<circle cx="242" cy="354" r="21" fill="rgba(0, 0, 255, 0.2)" stroke="blue" stroke-width="1" />
<text x="242" y="354" text-anchor="middle" font-size="10">10</text>
<circle cx="422" cy="480" r="24" fill="rgba(200, 200, 200, 0.2)" stroke="gray" stroke-width="1" />
<text x="422" y="480" text-anchor="middle" font-size="10">11</text>
<circle cx="104" cy="636" r="21" fill="rgba(0, 0, 255, 0.2)" stroke="blue" stroke-width="1" />
<text x="104" y="636" text-anchor="middle" font-size="10">12</text>
<circle cx="278" cy="408" r="9" fill="rgba(0, 0, 255, 0.2)" stroke="blue" stroke-width="1" />
<text x="278" y="408" text-anchor="middle" font-size="10">13</text>
<circle cx="338" cy="642" r="28.5" fill="rgba(200, 200, 200, 0.2)" stroke="gray" stroke-width="1" />
<text x="338" y="642" text-anchor="middle" font-size="10">14</text>
<circle cx="470" cy="714" r="21" fill="rgba(200, 200, 200, 0.2)" stroke="gray" stroke-width="1" />
<text x="470" y="714" text-anchor="middle" font-size="10">15</text>
<circle cx="380" cy="366" r="25.5" fill="rgba(200, 200, 200, 0.2)" stroke="gray" stroke-width="1" />
<text x="380" y="366" text-anchor="middle" font-size="10">16</text>
<circle cx="320" cy="528" r="7.5" fill="rgba(0, 0, 255, 0.2)" stroke="blue" stroke-width="1" />
<text x="320" y="528" text-anchor="middle" font-size="10">17</text>
<circle cx="254" cy="198" r="28.5" fill="rgba(200, 200, 200, 0.2)" stroke="gray" stroke-width="1" />
<text x="254" y="198" text-anchor="middle" font-size="10">18</text>
<circle cx="56" cy="606" r="15" fill="rgba(0, 0, 255, 0.2)" stroke="blue" stroke-width="1" />
<text x="56" y="606" text-anchor="middle" font-size="10">19</text>
<circle cx="536" cy="288" r="19.5" fill="rgba(200, 200, 200, 0.2)" stroke="gray" stroke-width="1" />
<text x="536" y="288" text-anchor="middle" font-size="10">20</text>
<circle cx="542" cy="402" r="7.5" fill="rgba(0, 0, 255, 0.2)" stroke="blue" stroke-width="1" />
<text x="542" y="402" text-anchor="middle" font-size="10">21</text>
<circle cx="464" cy="570" r="27" fill="rgba(200, 200, 200, 0.2)" stroke="gray" stroke-width="1" />
<text x="464" y="570" text-anchor="middle" font-size="10">22</text>
<circle cx="542" cy="618" r="7.5" fill="rgba(0, 0, 255, 0.2)" stroke="blue" stroke-width="1" />
<text x="542" y="618" text-anchor="middle" font-size="10">23</text>
<circle cx="614" cy="648" r="7.5" fill="rgba(0, 0, 255, 0.2)" stroke="blue" stroke-width="1" />
<text x="614" y="648" text-anchor="middle" font-size="10">24</text>
<circle cx="578" cy="462" r="9" fill="rgba(0, 0, 255, 0.2)" stroke="blue" stroke-width="1" />
<text x="578" y="462" text-anchor="middle" font-size="10">25</text>
<circle cx="158" cy="216" r="19.5" fill="rgba(200, 200, 200, 0.2)" stroke="gray" stroke-width="1" />
<text x="158" y="216" text-anchor="middle" font-size="10">26</text>
<circle cx="500" cy="300" r="9" fill="rgba(0, 0, 255, 0.2)" stroke="blue" stroke-width="1" />
<text x="500" y="300" text-anchor="middle" font-size="10">27</text>
<circle cx="536" cy="444" r="28.5" fill="rgba(200, 200, 200, 0.2)" stroke="gray" stroke-width="1" />
<text x="536" y="444" text-anchor="middle" font-size="10">28</text>
<circle cx="248" cy="420" r="24" fill="rgba(200, 200, 200, 0.2)" stroke="gray" stroke-width="1" />
<text x="248" y="420" text-anchor="middle" font-size="10">29</text>
<circle cx="428" cy="504" r="19.5" fill="rgba(0, 0, 255, 0.2)" stroke="blue" stroke-width="1" />
<text x="428" y="504" text-anchor="middle" font-size="10">30</text>
<circle cx="74" cy="564" r="25.5" fill="rgba(200, 200, 200, 0.2)" stroke="gray" stroke-width="1" />
<text x="74" y="564" text-anchor="middle" font-size="10">31</text>
<circle cx="278" cy="450" r="21" fill="rgba(200, 200, 200, 0.2)" stroke="gray" stroke-width="1" />
<text x="278" y="450" text-anchor="middle" font-size="10">32</text>
<circle cx="530" cy="690" r="18" fill="rgba(0, 0, 255, 0.2)" stroke="blue" stroke-width="1" />
<text x="530" y="690" text-anchor="middle" font-size="10">33</text>
<circle cx="230" cy="690" r="25.5" fill="rgba(200, 200, 200, 0.2)" stroke="gray" stroke-width="1" />
<text x="230" y="690" text-anchor="middle" font-size="10">34</text>
<circle cx="146" cy="264" r="24" fill="rgba(0, 0, 255, 0.2)" stroke="blue" stroke-width="1" />
<text x="146" y="264" text-anchor="middle" font-size="10">35</text>
<circle cx="506" cy="738" r="10.5" fill="rgba(0, 0, 255, 0.2)" stroke="blue" stroke-width="1" />
<text x="506" y="738" text-anchor="middle" font-size="10">36</text>
<circle cx="464" cy="606" r="19.5" fill="rgba(200, 200, 200, 0.2)" stroke="gray" stroke-width="1" />
<text x="464" y="606" text-anchor="middle" font-size="10">37</text>
<circle cx="332" cy="492" r="9" fill="rgba(0, 0, 255, 0.2)" stroke="blue" stroke-width="1" />
<text x="332" y="492" text-anchor="middle" font-size="10">38</text>
<circle cx="500" cy="222" r="28.5" fill="rgba(200, 200, 200, 0.2)" stroke="gray" stroke-width="1" />
<text x="500" y="222" text-anchor="middle" font-size="10">39</text>
<line x1="350" y1="450" x2="410" y2="456" stroke="#aaa" stroke-width="2" stroke-dasharray="5,5" />
<line x1="350" y1="450" x2="398" y2="312" stroke="#aaa" stroke-width="2" stroke-dasharray="5,5" />
<line x1="350" y1="450" x2="380" y2="414" stroke="#aaa" stroke-width="2" stroke-dasharray="5,5" />
<line x1="350" y1="450" x2="242" y2="354" stroke="#aaa" stroke-width="2" stroke-dasharray="5,5" />
<line x1="350" y1="450" x2="278" y2="408" stroke="#aaa" stroke-width="2" stroke-dasharray="5,5" />
<line x1="350" y1="450" x2="320" y2="528" stroke="#aaa" stroke-width="2" stroke-dasharray="5,5" />
<line x1="350" y1="450" x2="428" y2="504" stroke="#aaa" stroke-width="2" stroke-dasharray="5,5" />
<line x1="350" y1="450" x2="332" y2="492" stroke="#aaa" stroke-width="2" stroke-dasharray="5,5" />
<line x1="410" y1="456" x2="380" y2="414" stroke="#aaa" stroke-width="2" stroke-dasharray="5,5" />
<line x1="410" y1="456" x2="578" y2="462" stroke="#aaa" stroke-width="2" stroke-dasharray="5,5" />
<line x1="398" y1="312" x2="242" y2="354" stroke="#aaa" stroke-width="2" stroke-dasharray="5,5" />
<line x1="398" y1="312" x2="278" y2="408" stroke="#aaa" stroke-width="2" stroke-dasharray="5,5" />
<line x1="398" y1="312" x2="542" y2="402" stroke="#aaa" stroke-width="2" stroke-dasharray="5,5" />
<line x1="398" y1="312" x2="500" y2="300" stroke="#aaa" stroke-width="2" stroke-dasharray="5,5" />
<line x1="98" y1="300" x2="146" y2="264" stroke="#aaa" stroke-width="2" stroke-dasharray="5,5" />
<line x1="380" y1="414" x2="428" y2="504" stroke="#aaa" stroke-width="2" stroke-dasharray="5,5" />
<line x1="236" y1="156" x2="146" y2="264" stroke="#aaa" stroke-width="2" stroke-dasharray="5,5" />
<line x1="134" y1="534" x2="104" y2="636" stroke="#aaa" stroke-width="2" stroke-dasharray="5,5" />
<line x1="134" y1="534" x2="56" y2="606" stroke="#aaa" stroke-width="2" stroke-dasharray="5,5" />
<line x1="164" y1="570" x2="320" y2="528" stroke="#aaa" stroke-width="2" stroke-dasharray="5,5" />
<line x1="164" y1="570" x2="56" y2="606" stroke="#aaa" stroke-width="2" stroke-dasharray="5,5" />
<line x1="242" y1="354" x2="278" y2="408" stroke="#aaa" stroke-width="2" stroke-dasharray="5,5" />
<line x1="242" y1="354" x2="146" y2="264" stroke="#aaa" stroke-width="2" stroke-dasharray="5,5" />
<line x1="278" y1="408" x2="332" y2="492" stroke="#aaa" stroke-width="2" stroke-dasharray="5,5" />
<line x1="542" y1="402" x2="578" y2="462" stroke="#aaa" stroke-width="2" stroke-dasharray="5,5" />
<line x1="542" y1="618" x2="614" y2="648" stroke="#aaa" stroke-width="2" stroke-dasharray="5,5" />
<line x1="542" y1="618" x2="578" y2="462" stroke="#aaa" stroke-width="2" stroke-dasharray="5,5" />
<line x1="542" y1="618" x2="530" y2="690" stroke="#aaa" stroke-width="2" stroke-dasharray="5,5" />
<line x1="542" y1="618" x2="506" y2="738" stroke="#aaa" stroke-width="2" stroke-dasharray="5,5" />
<line x1="578" y1="462" x2="500" y2="300" stroke="#aaa" stroke-width="2" stroke-dasharray="5,5" />
<line x1="350" y1="450" x2="242" y2="354" stroke="green" stroke-width="2" />
<line x1="398" y1="312" x2="500" y2="300" stroke="green" stroke-width="2" />
<line x1="236" y1="156" x2="398" y2="312" stroke="green" stroke-width="2" />
<line x1="242" y1="354" x2="236" y2="156" stroke="green" stroke-width="2" />
<line x1="320" y1="528" x2="350" y2="450" stroke="green" stroke-width="2" />
<line x1="500" y1="300" x2="320" y2="528" stroke="green" stroke-width="2" />
<line x1="350" y1="450" x2="530" y2="690" stroke="orange" stroke-width="2" />
<line x1="542" y1="618" x2="614" y2="648" stroke="orange" stroke-width="2" />
<line x1="614" y1="648" x2="428" y2="504" stroke="orange" stroke-width="2" />
<line x1="428" y1="504" x2="350" y2="450" stroke="orange" stroke-width="2" />
<line x1="530" y1="690" x2="506" y2="738" stroke="orange" stroke-width="2" />
<line x1="506" y1="738" x2="542" y2="618" stroke="orange" stroke-width="2" />
<line x1="350" y1="450" x2="410" y2="456" stroke="purple" stroke-width="2" />
<line x1="410" y1="456" x2="164" y2="570" stroke="purple" stroke-width="2" />
<line x1="134" y1="534" x2="350" y2="450" stroke="purple" stroke-width="2" />
<line x1="164" y1="570" x2="134" y2="534" stroke="purple" stroke-width="2" />
<line x1="350" y1="450" x2="332" y2="492" stroke="brown" stroke-width="2" />
<line x1="98" y1="300" x2="56" y2="606" stroke="brown" stroke-width="2" />
<line x1="104" y1="636" x2="278" y2="408" stroke="brown" stroke-width="2" />
<line x1="278" y1="408" x2="350" y2="450" stroke="brown" stroke-width="2" />
<line x1="56" y1="606" x2="104" y2="636" stroke="brown" stroke-width="2" />
<line x1="332" y1="492" x2="98" y2="300" stroke="brown" stroke-width="2" />
<line x1="350" y1="450" x2="380" y2="414" stroke="green" stroke-width="2" />
<line x1="380" y1="414" x2="542" y2="402" stroke="green" stroke-width="2" />
<line x1="542" y1="402" x2="578" y2="462" stroke="green" stroke-width="2" />
<line x1="578" y1="462" x2="146" y2="264" stroke="green" stroke-width="2" />
<line x1="146" y1="264" x2="350" y2="450" stroke="green" stroke-width="2" />
<rect x="340" y="440" width="20" height="20" fill="red" />
</svg>